<svg xmlns="http://www.w3.org/2000/svg" viewBox="0 0 205 38.68"><defs><style>.cls-1{fill:#fff;}</style></defs><title>Asset 2</title><g id="Layer_2" data-name="Layer 2"><g id="Layer_1-2" data-name="Layer 1"><path class="cls-1" d="M192,14.69h3.36l.08-9.37h0l5.14,9.37h4.29L205,.41h-3.36l-.08,9.37h0L196.58.41h-4.5Zm-9.33,0h3.72L186.47.41h-3.71ZM171,3.63h0l1.47,4.93h-3.06ZM163.5,14.69h3.82l1.11-3.28h4.93l1.09,3.28h4L173.28.41H169ZM150.64,3.38h4.11l-.12,11.31h3.71l.12-11.31h3.86v-3H150.64ZM134.15,14.69h3.36l.08-9.37h0l5.14,9.37h4.29L147.19.41h-3.36l-.08,9.37h0L138.77.41h-4.5ZM116.59.41c0,2.81-.08,5.61-.08,9,0,4.07,2.62,5.68,6.17,5.68s6.15-1.94,6.19-5.61l.08-9.08h-3.76l-.08,8.65c0,2.52-1.3,3.08-2.46,3.08-1.61,0-2.39-.83-2.39-3,0-2.91,0-5.82.06-8.73ZM96.71,7.55a7.71,7.71,0,0,0,15.42,0,7.71,7.71,0,0,0-15.42,0m3.84,0c0-3.14,1.73-4.58,3.86-4.58s3.88,1.44,3.88,4.58-1.73,4.58-3.88,4.58-3.86-1.44-3.86-4.58M73.14,14.69h3.63L78.84,4.5h0l2.37,10.19h4.27L88.06,4.5h0l1.57,10.19h3.71L90.56.41H85.9L83.34,10.85h0L81.23.41H76.57ZM53.45,3.14h1.42c2.74,0,5,1.05,5,4.36C59.85,10.46,58,12,55,12H53.35ZM49.63,14.69H56c3.8,0,7.7-1.9,7.7-7.39C63.69,2.66,60.2.41,56,.41H49.74Zm-14.05,0H45.67l.06-3.1H39.3L39.42.41H35.7ZM15.83,7.55a7.29,7.29,0,0,0,7.72,7.55,7.28,7.28,0,0,0,7.7-7.55A7.28,7.28,0,0,0,23.55,0a7.29,7.29,0,0,0-7.72,7.55m3.84,0C19.67,4.42,21.4,3,23.53,3s3.88,1.44,3.88,4.58-1.73,4.58-3.88,4.58-3.86-1.44-3.86-4.58M12.67,1A8.74,8.74,0,0,0,8.19,0C3,0,0,3,0,7.43c0,4.62,2.91,7.68,7.72,7.68a10.08,10.08,0,0,0,4.73-1.05l-1.09-2.66a8.3,8.3,0,0,1-3.2.74c-2.7,0-4.31-2-4.31-4.62A4.44,4.44,0,0,1,8.57,3a6.4,6.4,0,0,1,3,.74Z"/><path class="cls-1" d="M106.68,37.87a14.19,14.19,0,0,0,4.44.8c3.18,0,6-1.34,6-4.87,0-2-1-3.47-4.64-4.29-1.65-.35-2.06-.85-2.06-1.42,0-.91.66-1.55,2.44-1.55a10.23,10.23,0,0,1,3,.6l1.05-2.64a12.64,12.64,0,0,0-4.54-.93c-2.7,0-5.8,1.42-5.8,4.5,0,2.77,1.69,3.63,3.36,4.13s3.34.62,3.34,1.94-1.22,1.57-2.37,1.57a13,13,0,0,1-3.3-.62Zm-12-11.17h1.51c1.49,0,2.21.52,2.21,1.69,0,1.44-1.24,1.69-2.13,1.69H94.62Zm.06,6.11h.56c.82,0,1.18.62,1.61,1.49l2,4h4.19l-2.5-4.46a4,4,0,0,0-2-2.06v0A3.48,3.48,0,0,0,102.14,28c0-3.24-2.5-4-5.47-4H91.06l-.12,14.28h3.76ZM75.45,38.26h9.87v-3H79.21l0-2.74h6.13V29.7H79.27l0-2.74h6.13V24H75.58ZM60.59,26.71H62c2.74,0,5,1.05,5,4.35,0,3-1.86,4.48-4.81,4.48H60.49ZM56.78,38.26h6.36c3.8,0,7.7-1.9,7.7-7.39,0-4.64-3.49-6.89-7.7-6.89H56.88Zm-14.05,0H52.81l.06-3.1H46.44L46.56,24H42.85Zm-9.41,0H37L37.15,24H33.43ZM15.75,24c0,2.81-.08,5.61-.08,9,0,4.07,2.62,5.68,6.17,5.68S28,36.74,28,33.06L28.11,24H24.35l-.08,8.65c0,2.52-1.3,3.08-2.46,3.08-1.61,0-2.39-.83-2.39-3,0-2.91,0-5.82.06-8.73ZM3.65,26.71H5.41c1,0,2,.27,2,1.53,0,.87-.6,1.46-1.8,1.46H3.65Zm0,5.72H5.55c1.09,0,1.86.56,1.86,1.59s-.64,1.53-1.76,1.53h-2ZM0,38.26H6.44c2.83,0,4.68-1.2,4.68-3.88a3.18,3.18,0,0,0-2.48-3.32v0A3.25,3.25,0,0,0,11,27.78c0-2.85-2.25-3.8-5-3.8H.12Z"/></g></g></svg>